<svg width="20" height="23" viewBox="0 0 20 23" fill="none" xmlns="http://www.w3.org/2000/svg">
<g clip-path="url(#clip0_123_155)">
<path d="M17.8234 3.89473C15.3505 1.42179 11.3267 1.42183 8.85373 3.89473C7.16472 5.58375 6.57822 8.07345 7.30927 10.3317L0.168917 17.4721C0.0607639 17.5802 0 17.7269 0 17.8798V21.1416C0 21.46 0.25816 21.7181 0.576584 21.7181H3.83831C3.99127 21.7181 4.13786 21.6574 4.24605 21.5492L5.06162 20.7337C5.18618 20.6091 5.24698 20.4344 5.22661 20.2593L5.12484 19.3837L6.33873 19.2693C6.61438 19.2433 6.83269 19.025 6.85867 18.7494L6.97316 17.5353L7.84888 17.6371C8.01237 17.6562 8.17602 17.6044 8.29894 17.495C8.42177 17.3856 8.49207 17.2289 8.49207 17.0644V15.9906H9.54631C9.69808 15.9906 9.84371 15.9308 9.95167 15.8241L11.3842 14.4081C13.643 15.1403 16.1339 14.5539 17.8234 12.8644C20.2963 10.3915 20.2963 6.36764 17.8234 3.89473ZM17.008 12.049C15.5527 13.5043 13.3696 13.9585 11.4465 13.2064C11.2343 13.1234 10.9931 13.1732 10.8311 13.3333L9.30944 14.8374H7.91544C7.59702 14.8374 7.33886 15.0956 7.33886 15.414V16.4169L6.52099 16.3218C6.36691 16.304 6.21217 16.3489 6.09161 16.4464C5.97108 16.544 5.8949 16.686 5.88033 16.8404L5.75531 18.166L4.42988 18.2909C4.27545 18.3054 4.13344 18.3816 4.03582 18.5022C3.93824 18.6227 3.89331 18.7775 3.91122 18.9315L4.04889 20.1154L3.59944 20.565H1.15313V18.1187L8.38241 10.8895C8.54437 10.7275 8.59515 10.485 8.51171 10.2717C7.75948 8.34856 8.21381 6.16559 9.6691 4.71022C11.6925 2.68691 14.9847 2.68691 17.008 4.71022C19.0313 6.73349 19.0313 10.0257 17.008 12.049Z" fill="url(#paint0_linear_123_155)"/>
<path d="M16.1925 5.5256C15.5181 4.85113 14.4206 4.85116 13.7462 5.5256C13.0718 6.20004 13.0718 7.29744 13.7462 7.97187C14.4206 8.64631 15.5181 8.64639 16.1925 7.97187C16.8669 7.29744 16.8669 6.20004 16.1925 5.5256ZM15.3771 7.15646C15.1523 7.38126 14.7865 7.3813 14.5617 7.15646C14.3369 6.93166 14.3369 6.56589 14.5617 6.34105C14.7871 6.11567 15.1517 6.11567 15.3771 6.34105C15.6025 6.56643 15.6024 6.93109 15.3771 7.15646Z" fill="url(#paint1_linear_123_155)"/>
</g>
<defs>
<linearGradient id="paint0_linear_123_155" x1="9.83905" y1="2.04004" x2="9.83905" y2="21.7181" gradientUnits="userSpaceOnUse">
<stop stop-color="#EC3641"/>
<stop offset="1" stop-color="#D72828"/>
</linearGradient>
<linearGradient id="paint1_linear_123_155" x1="9.83905" y1="2.04004" x2="9.83905" y2="21.7181" gradientUnits="userSpaceOnUse">
<stop stop-color="#EC3641"/>
<stop offset="1" stop-color="#D72828"/>
</linearGradient>
<clipPath id="clip0_123_155">
<rect width="19.6781" height="22.3615" fill="white" transform="translate(0 0.250977)"/>
</clipPath>
</defs>
</svg>
