<svg width="46" height="46" viewBox="0 0 46 46" fill="none" xmlns="http://www.w3.org/2000/svg">
<path d="M33.0751 15.4658L25.5426 22.9983L33.0751 30.5306L30.5342 33.072L23.0017 25.5395L15.4694 33.072L12.928 30.5306L20.4605 22.9983L12.928 15.4658L15.4694 12.9249L23.0017 20.4574L30.5342 12.9249L33.0751 15.4658ZM46 23C46 29.1433 43.6076 34.9195 39.2634 39.2634C34.9195 43.6076 29.1433 46 23 46C16.8567 46 11.0805 43.6076 6.7366 39.2634C2.39237 34.9195 0 29.1433 0 23C0 16.8567 2.39237 11.0805 6.7366 6.7366C11.0805 2.39237 16.8567 0 23 0C29.1433 0 34.9195 2.39237 39.2634 6.7366C43.6076 11.0805 46 16.8567 46 23ZM42.4062 23C42.4062 12.2996 33.7004 3.59375 23 3.59375C12.2996 3.59375 3.59375 12.2996 3.59375 23C3.59375 33.7004 12.2996 42.4062 23 42.4062C33.7004 42.4062 42.4062 33.7004 42.4062 23Z" fill="#757575"/>
</svg>
