<svg width="20" height="23" viewBox="0 0 20 23" fill="none" xmlns="http://www.w3.org/2000/svg">
<g clip-path="url(#clip0_123_8)">
<path d="M17.9748 5.00049H1.73205C0.775072 5.00049 0 5.80716 0 6.79202V17.5412C0 18.5319 0.780768 19.3327 1.73205 19.3327H17.9748C18.9238 19.3327 19.7069 18.5353 19.7069 17.5412V6.79202C19.7069 5.80891 18.9349 5.00049 17.9748 5.00049ZM17.7322 6.19484C17.3784 6.55892 11.2884 12.8248 11.0782 13.0412C10.751 13.3796 10.3161 13.5659 9.85343 13.5659C9.39078 13.5659 8.95584 13.3795 8.6276 13.04C8.48619 12.8945 2.46347 6.69783 1.97461 6.19484H17.7322ZM1.1547 17.2981V7.03587L6.14446 12.1698L1.1547 17.2981ZM1.97534 18.1384L6.96314 13.0121L7.81219 13.8857C8.35744 14.4497 9.08236 14.7602 9.85343 14.7602C10.6245 14.7602 11.3494 14.4497 11.8936 13.8868L12.7437 13.0121L17.7315 18.1384H1.97534ZM18.5522 17.2981L13.5624 12.1698L18.5522 7.03587V17.2981Z" fill="url(#paint0_linear_123_8)"/>
</g>
<defs>
<linearGradient id="paint0_linear_123_8" x1="9.85343" y1="5.00049" x2="9.85343" y2="19.3327" gradientUnits="userSpaceOnUse">
<stop stop-color="#EC3641"/>
<stop offset="1" stop-color="#D72828"/>
</linearGradient>
<clipPath id="clip0_123_8">
<rect width="19.7069" height="22.3941" fill="white" transform="translate(0 0.521484)"/>
</clipPath>
</defs>
</svg>
