<svg width="36" height="24" viewBox="0 0 36 24" fill="none" xmlns="http://www.w3.org/2000/svg">
<path d="M18 0.185547C10.0596 0.185547 3.21611 4.86634 0.0724132 11.621C-0.0241377 11.8257 -0.0241377 12.0652 0.0724132 12.2737C3.21611 19.0284 10.0597 23.7092 18 23.7092C25.9403 23.7092 32.7839 19.0284 35.9276 12.2737C36.0241 12.069 36.0241 11.8296 35.9276 11.621C32.7839 4.86634 25.9403 0.185547 18 0.185547ZM18 20.0635C13.5162 20.0635 9.88585 16.4293 9.88585 11.9493C9.88585 7.46549 13.52 3.83517 18 3.83517C22.4838 3.83517 26.1141 7.46935 26.1141 11.9493C26.1141 16.4293 22.48 20.0635 18 20.0635Z" fill="#4F4F4F"/>
<path d="M18 17.1399C20.8688 17.1399 23.1944 14.8143 23.1944 11.9455C23.1944 9.07664 20.8688 6.75101 18 6.75101C15.1312 6.75101 12.8056 9.07664 12.8056 11.9455C12.8056 14.8143 15.1312 17.1399 18 17.1399Z" fill="#4F4F4F"/>
</svg>
