<svg width="20" height="23" viewBox="0 0 20 23" fill="none" xmlns="http://www.w3.org/2000/svg">
<g clip-path="url(#clip0_123_114)">
<path d="M9.85352 8.09584C9.2839 8.09584 8.87888 8.33071 8.87888 8.67682V13.3863C8.87888 13.6829 9.28394 13.9796 9.85352 13.9796C10.3978 13.9796 10.8408 13.6829 10.8408 13.3863V8.67682C10.8408 8.33071 10.3978 8.09584 9.85352 8.09584Z" fill="url(#paint0_linear_123_114)"/>
<path d="M9.85352 5.19103C9.27127 5.19103 8.81559 5.59893 8.81559 6.06864C8.81559 6.53835 9.27127 6.95863 9.85352 6.95863C10.4231 6.95863 10.8788 6.53835 10.8788 6.06864C10.8788 5.59898 10.4231 5.19103 9.85352 5.19103Z" fill="url(#paint1_linear_123_114)"/>
<path d="M9.85343 0.101562C4.40708 0.101562 0 4.40316 0 9.71849C0 14.0587 2.92615 17.6626 6.87129 18.8865L9.11213 22.1121C9.27884 22.352 9.55648 22.4957 9.85343 22.4957C10.1504 22.4957 10.428 22.352 10.5947 22.1121L12.8356 18.8865C16.7824 17.662 19.7069 14.0568 19.7069 9.71849C19.7069 4.3998 15.2962 0.101562 9.85343 0.101562ZM12.0322 17.2952C11.8281 17.3509 11.651 17.4754 11.5321 17.6465L9.85343 20.0628L8.1748 17.6465C8.05585 17.4754 7.87871 17.3509 7.6747 17.2952C4.31656 16.3782 1.79153 13.3623 1.79153 9.71849C1.79153 5.38037 5.4081 1.85111 9.85343 1.85111C14.2988 1.85111 17.9153 5.38037 17.9153 9.71849C17.9153 13.3659 15.3866 16.3792 12.0322 17.2952Z" fill="url(#paint2_linear_123_114)"/>
</g>
<defs>
<linearGradient id="paint0_linear_123_114" x1="9.85343" y1="0.101562" x2="9.85343" y2="22.4957" gradientUnits="userSpaceOnUse">
<stop stop-color="#EC3641"/>
<stop offset="1" stop-color="#D72828"/>
</linearGradient>
<linearGradient id="paint1_linear_123_114" x1="9.85343" y1="0.101562" x2="9.85343" y2="22.4957" gradientUnits="userSpaceOnUse">
<stop stop-color="#EC3641"/>
<stop offset="1" stop-color="#D72828"/>
</linearGradient>
<linearGradient id="paint2_linear_123_114" x1="9.85343" y1="0.101562" x2="9.85343" y2="22.4957" gradientUnits="userSpaceOnUse">
<stop stop-color="#EC3641"/>
<stop offset="1" stop-color="#D72828"/>
</linearGradient>
<clipPath id="clip0_123_114">
<rect width="19.7069" height="22.3941" fill="white" transform="translate(0 0.101562)"/>
</clipPath>
</defs>
</svg>
