<svg width="20" height="23" viewBox="0 0 20 23" fill="none" xmlns="http://www.w3.org/2000/svg">
<g clip-path="url(#clip0_123_11)">
<path d="M10.265 15.2523C10.6978 15.2523 11.0486 14.9015 11.0486 14.4687C11.0486 14.0359 10.6978 13.6851 10.265 13.6851C9.83226 13.6851 9.48143 14.0359 9.48143 14.4687C9.48143 14.9015 9.83226 15.2523 10.265 15.2523Z" fill="url(#paint0_linear_123_11)"/>
<path d="M12.89 19.4053H3.13436C2.27022 19.4053 1.56718 18.7022 1.56718 17.8381V11.4127C1.56718 10.5485 2.27022 9.84548 3.13436 9.84548H14.418C14.5965 9.84548 14.738 9.86123 14.8509 9.89355C15.2669 10.0127 15.7007 9.7721 15.82 9.35609C15.9392 8.94008 15.6985 8.50621 15.2825 8.38698C15.0273 8.31388 14.7446 8.27834 14.418 8.27834H13.4763V5.51485C13.4763 2.97716 11.3672 0.912598 8.77475 0.912598C6.18233 0.912598 4.07322 2.97716 4.07322 5.51485V8.27834H3.13436C1.40607 8.27834 0 9.68441 0 11.4127V17.8381C0 19.5664 1.40607 20.9725 3.13436 20.9725H12.89C13.3228 20.9725 13.6736 20.6217 13.6736 20.1889C13.6736 19.7561 13.3228 19.4053 12.89 19.4053ZM5.6404 5.51485C5.6404 3.8413 7.04647 2.47978 8.77475 2.47978C10.503 2.47978 11.9091 3.8413 11.9091 5.51485V8.27834H5.6404V5.51485Z" fill="url(#paint1_linear_123_11)"/>
<path d="M7.32656 15.2523C7.75933 15.2523 8.11015 14.9015 8.11015 14.4687C8.11015 14.0359 7.75933 13.6851 7.32656 13.6851C6.8938 13.6851 6.54297 14.0359 6.54297 14.4687C6.54297 14.9015 6.8938 15.2523 7.32656 15.2523Z" fill="url(#paint2_linear_123_11)"/>
<path d="M18.8104 13.8892C18.7933 12.3695 17.5516 11.1384 16.0279 11.1384C14.4935 11.1384 13.2451 12.3868 13.2451 13.9212C13.2451 14.3539 13.5959 14.7048 14.0287 14.7048C14.4615 14.7048 14.8123 14.3539 14.8123 13.9212C14.8123 13.2509 15.3576 12.7056 16.0279 12.7056C16.6982 12.7056 17.2434 13.2509 17.2434 13.9212C17.2434 13.9283 17.2435 13.9354 17.2437 13.9424C17.2356 14.4223 16.9474 14.8518 16.5046 15.0408C15.739 15.3678 15.2443 16.1229 15.2443 16.9646V17.6422C15.2443 18.075 15.5951 18.4258 16.0279 18.4258C16.4607 18.4258 16.8115 18.075 16.8115 17.6422V16.9646C16.8115 16.7515 16.9326 16.5622 17.12 16.4822C18.1476 16.0435 18.8114 15.0382 18.8111 13.921C18.8111 13.9104 18.8109 13.8998 18.8104 13.8892Z" fill="url(#paint3_linear_123_11)"/>
<path d="M16.0244 20.9725C16.4572 20.9725 16.808 20.6217 16.808 20.1889C16.808 19.7561 16.4572 19.4053 16.0244 19.4053C15.5916 19.4053 15.2408 19.7561 15.2408 20.1889C15.2408 20.6217 15.5916 20.9725 16.0244 20.9725Z" fill="url(#paint4_linear_123_11)"/>
<path d="M4.3881 15.2523C4.82087 15.2523 5.17169 14.9015 5.17169 14.4687C5.17169 14.0359 4.82087 13.6851 4.3881 13.6851C3.95534 13.6851 3.60451 14.0359 3.60451 14.4687C3.60451 14.9015 3.95534 15.2523 4.3881 15.2523Z" fill="url(#paint5_linear_123_11)"/>
</g>
<defs>
<linearGradient id="paint0_linear_123_11" x1="9.40554" y1="0.912598" x2="9.40554" y2="20.9725" gradientUnits="userSpaceOnUse">
<stop stop-color="#EC3641"/>
<stop offset="1" stop-color="#D72828"/>
</linearGradient>
<linearGradient id="paint1_linear_123_11" x1="9.40554" y1="0.912598" x2="9.40554" y2="20.9725" gradientUnits="userSpaceOnUse">
<stop stop-color="#EC3641"/>
<stop offset="1" stop-color="#D72828"/>
</linearGradient>
<linearGradient id="paint2_linear_123_11" x1="9.40554" y1="0.912598" x2="9.40554" y2="20.9725" gradientUnits="userSpaceOnUse">
<stop stop-color="#EC3641"/>
<stop offset="1" stop-color="#D72828"/>
</linearGradient>
<linearGradient id="paint3_linear_123_11" x1="9.40554" y1="0.912598" x2="9.40554" y2="20.9725" gradientUnits="userSpaceOnUse">
<stop stop-color="#EC3641"/>
<stop offset="1" stop-color="#D72828"/>
</linearGradient>
<linearGradient id="paint4_linear_123_11" x1="9.40554" y1="0.912598" x2="9.40554" y2="20.9725" gradientUnits="userSpaceOnUse">
<stop stop-color="#EC3641"/>
<stop offset="1" stop-color="#D72828"/>
</linearGradient>
<linearGradient id="paint5_linear_123_11" x1="9.40554" y1="0.912598" x2="9.40554" y2="20.9725" gradientUnits="userSpaceOnUse">
<stop stop-color="#EC3641"/>
<stop offset="1" stop-color="#D72828"/>
</linearGradient>
<clipPath id="clip0_123_11">
<rect width="19.7069" height="22.3941" fill="white" transform="translate(0 0.0166016)"/>
</clipPath>
</defs>
</svg>
