<svg width="20" height="24" viewBox="0 0 20 24" fill="none" xmlns="http://www.w3.org/2000/svg">
<g clip-path="url(#clip0_123_152)">
<path d="M13.7505 0.80957H3.54599C2.69582 0.80957 2 1.48971 2 2.32214V21.6905C2 22.5229 2.69582 23.2037 3.54599 23.2037H13.7505C14.6007 23.2037 15.2965 22.5242 15.2965 21.6912V2.32214C15.2965 1.48971 14.6007 0.80957 13.7505 0.80957ZM7.01595 1.89985H10.2806C10.3839 1.89985 10.4676 1.98174 10.4676 2.08348C10.4676 2.18457 10.3839 2.26647 10.2806 2.26647H7.01595C6.91262 2.26647 6.82892 2.18457 6.82892 2.08348C6.82892 1.98174 6.91262 1.89985 7.01595 1.89985ZM8.64826 22.4474C8.22122 22.4474 7.87527 22.109 7.87527 21.6905C7.87527 21.2721 8.22122 20.9342 8.64826 20.9342C9.0753 20.9342 9.42125 21.2721 9.42125 21.6905C9.42125 22.109 9.0753 22.4474 8.64826 22.4474ZM14.2207 20.4044H3.07578V3.2083H14.2207V20.4044Z" fill="url(#paint0_linear_123_152)"/>
</g>
<defs>
<linearGradient id="paint0_linear_123_152" x1="8.64826" y1="0.80957" x2="8.64826" y2="23.2037" gradientUnits="userSpaceOnUse">
<stop stop-color="#EC3641"/>
<stop offset="1" stop-color="#D72828"/>
</linearGradient>
<clipPath id="clip0_123_152">
<rect width="19.7069" height="22.3941" fill="white" transform="translate(0.208496 0.80957)"/>
</clipPath>
</defs>
</svg>
