<svg width="20" height="24" viewBox="0 0 20 24" fill="none" xmlns="http://www.w3.org/2000/svg">
<g clip-path="url(#clip0_123_4)">
<path d="M3.05142 11.9707C3.12948 11.8909 3.22264 11.8275 3.32546 11.7841C3.42829 11.7406 3.53873 11.7181 3.65035 11.7178C3.76197 11.7175 3.87253 11.7394 3.97559 11.7823C4.07866 11.8252 4.17216 11.8881 4.25065 11.9675C4.32914 12.0468 4.39104 12.141 4.43276 12.2445C4.47448 12.3481 4.49518 12.4589 4.49364 12.5705C4.49211 12.6821 4.46837 12.7923 4.42382 12.8946C4.37927 12.997 4.31479 13.0894 4.23415 13.1666C3.52057 13.8687 2.95444 14.7064 2.56896 15.6303C2.18349 16.5542 1.98644 17.5459 1.98939 18.547C1.98939 19.5757 4.93813 21.0702 9.55911 21.0702C14.1801 21.0702 17.1288 19.5749 17.1288 18.5453C17.1317 17.551 16.9373 16.5661 16.5569 15.6475C16.1765 14.7289 15.6177 13.8949 14.9128 13.1937C14.833 13.116 14.7695 13.0232 14.7259 12.9208C14.6824 12.8183 14.6595 12.7082 14.6588 12.5968C14.6581 12.4855 14.6795 12.3751 14.7218 12.2721C14.7641 12.1691 14.8264 12.0755 14.9052 11.9968C14.9839 11.918 15.0775 11.8557 15.1805 11.8134C15.2835 11.7712 15.3939 11.7497 15.5052 11.7505C15.6166 11.7512 15.7267 11.774 15.8291 11.8176C15.9316 11.8611 16.0244 11.9246 16.1021 12.0044C16.9639 12.8616 17.647 13.8812 18.112 15.0043C18.577 16.1273 18.8146 17.3315 18.811 18.547C18.811 21.2785 14.0446 22.7524 9.55911 22.7524C5.07363 22.7524 0.307231 21.2785 0.307231 18.547C0.303492 17.3233 0.54432 16.1112 1.01557 14.9819C1.48682 13.8526 2.17899 12.8288 3.05142 11.9707Z" fill="url(#paint0_linear_123_4)"/>
<path d="M9.55911 12.6594C8.39466 12.6594 7.25636 12.3141 6.28816 11.6672C5.31995 11.0202 4.56533 10.1007 4.11972 9.02491C3.6741 7.9491 3.55751 6.76531 3.78468 5.62324C4.01185 4.48116 4.57259 3.4321 5.39598 2.60871C6.21937 1.78532 7.26843 1.22458 8.41051 0.997408C9.55258 0.770235 10.7364 0.886828 11.8122 1.33244C12.888 1.77806 13.8075 2.53268 14.4544 3.50089C15.1014 4.46909 15.4467 5.60739 15.4467 6.77184C15.4449 8.33277 14.824 9.82924 13.7203 10.933C12.6165 12.0367 11.12 12.6576 9.55911 12.6594ZM9.55911 2.56644C8.72736 2.56644 7.91429 2.81308 7.22272 3.27518C6.53114 3.73727 5.99213 4.39407 5.67383 5.1625C5.35553 5.93094 5.27225 6.77651 5.43452 7.59227C5.59678 8.40804 5.99731 9.15737 6.58545 9.74551C7.17358 10.3336 7.92291 10.7342 8.73868 10.8964C9.55445 11.0587 10.4 10.9754 11.1684 10.6571C11.9369 10.3388 12.5937 9.79981 13.0558 9.10824C13.5179 8.41666 13.7645 7.60359 13.7645 6.77184C13.7632 5.6569 13.3197 4.58801 12.5313 3.79962C11.7429 3.01124 10.6741 2.56775 9.55911 2.56644Z" fill="url(#paint1_linear_123_4)"/>
</g>
<defs>
<linearGradient id="paint0_linear_123_4" x1="9.55911" y1="0.884277" x2="9.55911" y2="22.7524" gradientUnits="userSpaceOnUse">
<stop stop-color="#EC3641"/>
<stop offset="1" stop-color="#D72828"/>
</linearGradient>
<linearGradient id="paint1_linear_123_4" x1="9.55911" y1="0.884277" x2="9.55911" y2="22.7524" gradientUnits="userSpaceOnUse">
<stop stop-color="#EC3641"/>
<stop offset="1" stop-color="#D72828"/>
</linearGradient>
<clipPath id="clip0_123_4">
<rect width="19.7069" height="23.2899" fill="white" transform="translate(0 0.521484)"/>
</clipPath>
</defs>
</svg>
